<?xml version="1.0" encoding="UTF-8"?>
<!DOCTYPE svg PUBLIC "-//W3C//DTD SVG 1.1//EN" "http://www.w3.org/Graphics/SVG/1.1/DTD/svg11.dtd">
<!-- Creator: CorelDRAW X7 -->
<svg xmlns="http://www.w3.org/2000/svg" xml:space="preserve" width="200mm" height="50mm" version="1.1" style="shape-rendering:geometricPrecision; text-rendering:geometricPrecision; image-rendering:optimizeQuality; fill-rule:evenodd; clip-rule:evenodd"
viewBox="0 0 20000 5000"
 xmlns:xlink="http://www.w3.org/1999/xlink">
 <defs>
  <style type="text/css">
   <![CDATA[
    .fil4 {fill:none}
    .fil3 {fill:#F497AB}
    .fil1 {fill:#BFE3DA}
    .fil2 {fill:#A3A295}
    .fil0 {fill:#003333}
   ]]>
  </style>
 </defs>
 <g id="Camada_x0020_1">
  <metadata id="CorelCorpID_0Corel-Layer"/>
  <g id="_2301356112064">
   <g>
    <g>
     <path class="fil0" d="M13519 2250c-37,-547 731,-596 768,-72 40,554 -734,592 -768,72zm295 -489c-253,49 -401,297 -354,549 45,245 285,413 535,359 250,-54 392,-282 354,-538 -39,-252 -282,-418 -535,-370z"/>
     <path class="fil0" d="M7484 2243c-7,-33 -7,-391 0,-421 166,-14 382,-9 358,220 -8,75 -54,143 -110,183 -60,42 -178,27 -248,18zm277 35c50,-64 92,-73 130,-166 31,-75 27,-169 -19,-238 -93,-144 -306,-113 -457,-105l2 895 63 -1 2 -365 213 5c35,28 137,182 176,230 81,99 123,133 261,141l-3 -42c-53,-23 -70,-14 -125,-56 -68,-52 -190,-226 -243,-298z"/>
     <path class="fil0" d="M11633 1871c26,81 166,377 168,427l-344 -2 176 -425zm-201 482l398 1 131 310 64 -1c-1,-31 -333,-819 -374,-903l-35 1c-33,59 -371,877 -374,903l61 0 129 -311z"/>
     <path class="fil0" d="M16746 1870c26,75 170,386 170,427l-342 1 172 -428zm-389 793l58 1c45,-56 90,-254 136,-311l392 0 132 310 68 1 -376 -904 -37 1c-67,143 -125,301 -188,448 -27,65 -181,416 -185,454z"/>
     <path class="fil0" d="M15376 1766l-63 1c-24,377 117,853 -306,853 -185,0 -283,-92 -303,-273 -16,-149 10,-483 -5,-580l-61 0c-9,77 -5,548 8,621 36,193 159,287 354,290 191,2 322,-84 362,-273 22,-104 13,-507 14,-639z"/>
     <path class="fil0" d="M6618 1680l-3 983 65 2 2 -928c164,-32 397,-12 405,196 7,202 -180,262 -347,275l-2 43c153,21 448,-87 419,-352 -29,-269 -342,-234 -539,-219z"/>
     <path class="fil0" d="M13202 1710c-50,-39 -197,-54 -262,-50 -226,15 -286,202 -196,341 126,193 491,280 388,510 -35,79 -121,103 -205,107 -114,6 -148,-18 -245,-62l-30 48c124,125 621,125 565,-216 -13,-78 -67,-138 -120,-184 -99,-84 -295,-168 -316,-307 -15,-98 38,-159 132,-172 151,-22 218,31 271,33l18 -48z"/>
     <path class="fil0" d="M15719 2602c17,-39 349,-537 404,-622 33,-52 121,-155 118,-214l-584 1 0 54 485 1c-6,33 -225,354 -264,414 -45,70 -92,139 -136,209 -42,65 -126,171 -118,220l625 -4 -1 -55 -529 -4z"/>
     <path class="fil0" d="M10059 2617l-17 -40c-30,5 -73,22 -107,29 -114,23 -249,21 -351,-38 -297,-175 -250,-580 -20,-712 162,-93 324,-25 469,-5 12,-19 15,-30 13,-51 -347,-135 -747,3 -737,425 6,265 223,461 495,452 65,-2 210,-17 255,-60z"/>
     <path class="fil0" d="M8578 2610c158,133 568,90 513,-202 -37,-200 -380,-265 -398,-447 -8,-88 48,-142 130,-153 120,-16 182,28 236,36l20 -46c-59,-52 -345,-90 -427,47 -92,154 44,279 154,356 101,70 282,177 206,329 -34,68 -117,90 -190,93 -127,5 -170,-48 -216,-60 -14,17 -23,27 -28,47z"/>
     <polygon class="fil0" points="10713,2665 11186,2664 11184,2606 10774,2603 10773,1767 10710,1769 "/>
     <polygon class="fil0" points="10302,2664 10366,2663 10363,1766 10301,1768 "/>
     <polygon class="fil0" points="8270,2664 8335,2663 8332,1766 8269,1768 "/>
    </g>
    <g>
     <path class="fil0" d="M7351 3277c46,-5 118,7 159,-8l-2 -46c-39,-13 -112,-2 -157,-7 8,9 -11,7 19,9l132 0 1 42 -133 0c-32,2 -9,-1 -19,10z"/>
     <path class="fil0" d="M17444 3278c50,-10 111,6 159,-8l-2 -51 -157 -4c8,10 -12,7 19,10l132 0 1 41 -133 0c-33,4 -9,0 -19,12z"/>
     <polygon class="fil0" points="15530,3183 15695,3405 15751,3404 15750,3085 15699,3088 15695,3312 15523,3084 15472,3085 15474,3407 15526,3406 "/>
     <polygon class="fil0" points="10118,3183 10283,3405 10339,3404 10338,3085 10286,3088 10283,3312 10111,3084 10062,3087 10063,3406 10114,3406 "/>
     <path class="fil0" d="M8022 3137c213,-33 208,157 -1,122l1 -122zm142 164c29,-25 51,-31 60,-76 31,-159 -149,-147 -260,-140l4 322 52 -1 2 -95 92 3 58 93 57 -3 -65 -103z"/>
     <path class="fil0" d="M9351 3266c-21,-152 210,-178 228,-34 19,156 -208,176 -228,34zm-54 13c36,205 382,158 335,-66 -43,-201 -372,-151 -335,66z"/>
     <path class="fil0" d="M12710 3145c139,-61 225,158 80,211 -131,48 -230,-146 -80,-211zm-129 114c10,212 359,199 339,-27 -19,-206 -350,-190 -339,27z"/>
     <path class="fil0" d="M18115 3138c210,-42 208,163 -1,121l1 -121zm143 163c29,-26 50,-29 59,-76 30,-155 -147,-149 -258,-140l2 322 52 -1 2 -95 92 3 62 94 53 -4 -64 -103z"/>
     <path class="fil0" d="M13401 3137c211,-37 207,160 -2,122l2 -122zm142 164c29,-26 50,-30 59,-76 8,-38 2,-81 -27,-108 -42,-39 -174,-40 -227,-30l1 319 50 0 2 -95 91 3 58 93 57 -3 -64 -103z"/>
     <path class="fil0" d="M7351 3277c10,-11 -13,-8 19,-10l133 0 -1 -42 -132 0c-30,-2 -11,0 -19,-9l1 -81 173 -1 -1 -50 -230 1 3 322 233 -2 -2 -46 -178 -4 1 -78z"/>
     <path class="fil0" d="M17444 3278c10,-12 -14,-8 19,-12l133 0 -1 -41 -132 0c-31,-3 -11,0 -19,-10l1 -80 173 -1 -1 -50 -229 1 3 322 232 -1 0 -46 -179 -2 0 -80z"/>
     <path class="fil0" d="M14834 3286c2,-29 39,-111 55,-136 16,23 53,109 55,137l-110 -1zm-24 50l160 0 34 71 51 -2c-4,-23 -127,-304 -141,-321l-50 1c-22,41 -136,293 -137,322l48 1 35 -72z"/>
     <path class="fil0" d="M10864 3286c3,-29 39,-111 55,-136 17,24 53,108 56,137l-111 -1zm-24 50l160 0 35 71 53 -3 -143 -320 -51 1c-21,40 -135,293 -136,322l48 1 34 -72z"/>
     <path class="fil0" d="M16766 3358c6,-26 80,-102 103,-130 64,-78 92,-90 83,-144l-260 2 2 49 179 2c-27,76 -191,182 -185,270l267 -1 -1 -46 -188 -2z"/>
     <path class="fil0" d="M8722 3147c48,-42 96,2 145,10l14 -47c-60,-39 -207,-50 -223,42 -20,115 117,89 170,147l-3 34c-49,47 -117,9 -164,-24l-22 44c56,58 204,81 243,-4 57,-124 -120,-118 -164,-171l4 -31z"/>
     <path class="fil0" d="M6667 3260l-1 -123c206,-32 204,155 1,123zm1 53c55,-9 98,10 152,-22 70,-42 73,-176 -42,-203 -28,-7 -134,-7 -163,-1l1 319 49 0 3 -93z"/>
     <path class="fil0" d="M14268 3338c-71,64 -202,4 -189,-105 5,-40 37,-79 75,-91 71,-25 88,12 140,25l21 -37c-103,-95 -289,-31 -291,116 -3,155 188,214 293,122l-4 -117 -42 2 -3 85z"/>
     <polygon class="fil0" points="11506,3407 11697,3405 11694,3358 11557,3355 11554,3084 11504,3086 "/>
     <polygon class="fil0" points="16206,3408 16258,3408 16255,3084 16205,3086 "/>
    </g>
    <g>
     <path class="fil1" d="M3693 483c851,0 1578,530 1871,1277l44 -117 29 -76 126 47 -76 202 -76 202 -202 -76 -202 -76 47 -126 76 29 119 45c-272,-705 -956,-1204 -1756,-1204 -811,0 -1502,513 -1767,1231l-120 -40c281,-769 1020,-1318 1887,-1318zm-1926 2592c3,37 71,223 93,243 22,0 95,-33 110,-48l-81 -226 -122 31zm150 368c6,26 114,203 135,217l104 -70 -126 -204c-24,0 -99,40 -113,57zm3028 627c24,-6 178,-145 189,-170 -7,-16 -77,-79 -86,-80 -16,-2 -179,154 -179,154 -6,21 57,88 76,96zm-3235 -1900l123 25 58 -241c-20,-10 -70,-24 -90,-28 -44,-10 -41,11 -51,52 -11,42 -40,155 -40,192zm3512 1627c27,-11 152,-175 154,-202 -11,-14 -81,-64 -97,-63 -18,1 -146,182 -146,189 1,18 71,73 89,76zm-2131 622c28,18 227,68 255,61l20 -120 -236 -60c-13,15 -40,99 -39,119zm-472 -223l66 -102c-13,-18 -105,-75 -129,-93 -71,-55 -53,-75 -117,2 -51,61 -17,60 49,109 25,19 105,82 131,84zm1997 88c30,-3 199,-105 217,-130 -2,-19 -49,-85 -64,-99 -33,6 -119,67 -155,87 -35,20 -68,18 -48,62 9,23 32,66 50,80zm-2483 -518c9,25 150,179 174,188 22,-8 78,-66 84,-89 -6,-14 -101,-112 -121,-134 -29,-34 -27,-54 -65,-27 -14,10 -64,51 -72,62zm3315 -286c24,-23 87,-145 83,-175 -15,-12 -97,-49 -113,-40 -7,4 -81,149 -76,159 4,7 92,56 106,56zm-2480 894l45 -115c-13,-11 -116,-54 -141,-66 -85,-42 -70,-57 -119,24 -42,71 -3,61 69,97 29,15 118,61 146,60zm1283 58c32,-1 216,-66 238,-86 4,-25 -29,-90 -43,-114 -30,2 -131,46 -170,58 -40,13 -69,7 -56,53 5,19 22,77 31,89zm-2567 -1873l126 5 9 -252c-23,-7 -68,-6 -95,-9 -43,-5 -39,20 -39,61 1,50 -15,156 -1,195zm50 388c24,6 103,-11 123,-27l-40 -243c-102,4 -133,-4 -118,89 7,43 17,148 35,181zm2135 1557c32,6 227,-23 252,-41 1,-21 -13,-104 -27,-115 -9,-7 -235,25 -240,34 -6,10 5,106 15,122zm-136 7l2 -128c-19,-5 -132,-4 -156,-4 -85,-1 -92,-41 -101,56 -9,92 -6,68 86,72 51,3 120,18 169,4z"/>
     <polygon class="fil2" points="3679,765 5251,2154 5088,2352 3679,1108 2269,2353 2107,2154 "/>
     <polygon class="fil2" points="2395,2387 2458,2387 2458,3761 4932,3761 4932,2387 4995,2387 4995,3824 2395,3824 "/>
     <path class="fil3" d="M3679 3511c0,0 572,-402 732,-762 160,-360 -131,-585 -322,-598 -191,-13 -329,104 -410,257 -82,-153 -220,-270 -411,-257 -191,13 -482,238 -322,598 160,360 733,762 733,762z"/>
    </g>
   </g>
   <rect class="fil4" width="20000" height="5000"/>
  </g>
 </g>
</svg>
